<svg width="41" height="24" viewBox="0 0 41 24" fill="none" xmlns="http://www.w3.org/2000/svg">
<rect width="41" height="24" rx="12" fill="#151515"/>
<path d="M13.6813 4.00406C13.4743 4.07362 13.2958 4.209 13.1731 4.38953C13.0503 4.57005 12.99 4.78579 13.0014 5.0038V15.0013C13.0014 15.2664 13.1067 15.5207 13.2942 15.7082C13.4817 15.8957 13.7361 16.001 14.0013 16.001H19.0008V18.0005H17.001C15.9011 18.0005 15.0012 18.9003 15.0012 20H27.0002C27.0002 18.9003 26.1002 18.0005 25.0003 18.0005H23.0005V16.001H28.0001C28.2653 16.001 28.5196 15.8957 28.7071 15.7082C28.8947 15.5207 29 15.2664 29 15.0013V5.0038C29 4.73865 28.8947 4.48436 28.7071 4.29688C28.5196 4.10939 28.2653 4.00406 28.0001 4.00406L14.0013 4.00406C13.9414 3.99865 13.8812 3.99865 13.8213 4.00406C13.7813 4.00166 13.7413 4.00166 13.7013 4.00406L13.6813 4.00406ZM15.0012 6.00355H27.0002V14.0015H15.0012V6.00355Z" fill="white"/>
</svg>
