<svg width="16" height="16" viewBox="0 0 16 16" fill="none" xmlns="http://www.w3.org/2000/svg">
<path d="M0.681302 0.00405721C0.474339 0.0736189 0.295837 0.209001 0.173059 0.389525C0.0502821 0.570049 -0.0100212 0.785793 0.00135984 1.0038V11.0013C0.00135984 11.2664 0.106708 11.5207 0.294228 11.7082C0.481749 11.8957 0.736081 12.001 1.00127 12.001H6.00085V14.0005H4.00102C2.90111 14.0005 2.00119 14.9003 2.00119 16H14.0002C14.0002 14.9003 13.1002 14.0005 12.0003 14.0005H10.0005V12.001H15.0001C15.2653 12.001 15.5196 11.8957 15.7071 11.7082C15.8947 11.5207 16 11.2664 16 11.0013V1.0038C16 0.738654 15.8947 0.484365 15.7071 0.296876C15.5196 0.109387 15.2653 0.00405721 15.0001 0.00405721L1.00127 0.00405721C0.941402 -0.0013524 0.881163 -0.0013524 0.82129 0.00405721C0.78133 0.00165565 0.741261 0.00165565 0.7013 0.00405721L0.681302 0.00405721ZM2.00119 2.00355H14.0002V10.0015H2.00119V2.00355Z" fill="black"/>
</svg>
