<svg width="41" height="24" viewBox="0 0 41 24" fill="none" xmlns="http://www.w3.org/2000/svg">
<rect width="41" height="24" rx="12" fill="#151515"/>
<path d="M20.012 4V5.99601H18.515C17.1577 5.99601 16.02 7.13373 16.02 8.49102V9.48902C16.02 10.8463 16.8982 11.9641 18.1956 12.3034L23.3054 13.6208C23.5848 13.7006 23.984 14.1996 23.984 14.499V15.497C23.984 15.7764 23.7645 15.996 23.485 15.996H18.495C18.2555 15.996 18.0758 15.9162 17.996 15.8762V14H16V15.996C16 16.6747 16.3992 17.2535 16.8782 17.5529C17.3373 17.8723 17.9162 17.992 18.495 17.992H19.992V19.988H21.988V17.992H23.485C24.8623 17.992 25.98 16.8743 25.98 15.497V14.499C25.98 13.1417 25.1018 12.024 23.8044 11.6846L18.6946 10.3673C18.4152 10.2874 18.016 9.78842 18.016 9.48902V8.49102C18.016 8.21158 18.2355 7.99202 18.515 7.99202H23.505C23.7246 7.99202 23.9242 8.07186 24.004 8.11178V9.98802H26V7.99202C26 7.31337 25.6008 6.73453 25.1218 6.43513C24.6627 6.11577 24.0838 5.99601 23.505 5.99601H22.008V4L20.012 4Z" fill="white"/>
</svg>
