<svg width="41" height="24" viewBox="0 0 41 24" fill="none" xmlns="http://www.w3.org/2000/svg">
<rect width="41" height="24" rx="12" fill="#151515"/>
<path d="M20.6871 5C20.6058 5 20.5244 5.06508 20.4756 5.14643L18.9462 8.09136C18.9136 8.17272 18.8323 8.2378 18.7347 8.2378H16.4406C15.0901 8.2378 14 9.32791 14 10.6783V17.8536C14 17.9349 14.0651 18 14.1464 18H26.8536C26.9349 18 27 17.9349 27 17.8536V8.4005C27 8.30288 26.9349 8.25407 26.8536 8.25407H25.5357C25.4543 8.25407 25.373 8.18899 25.3242 8.10763L23.7947 5.1627C23.7459 5.08135 23.6809 5.01627 23.5832 5.01627H20.6383L20.6871 5ZM16.4731 9.8811C16.9287 9.8811 17.2866 10.239 17.2866 10.6946C17.2866 11.1502 16.9287 11.5081 16.4731 11.5081C16.0175 11.5081 15.6596 11.1502 15.6596 10.6946C15.6596 10.239 16.0175 9.8811 16.4731 9.8811ZM22.1677 9.8811C23.9574 9.8811 25.4218 11.3454 25.4218 13.1352C25.4218 14.9249 23.9574 16.3892 22.1677 16.3892C20.378 16.3892 18.9136 14.9249 18.9136 13.1352C18.9136 11.3454 20.378 9.8811 22.1677 9.8811ZM22.1677 11.5081C21.2728 11.5081 20.5407 12.2403 20.5407 13.1352C20.5407 14.03 21.2728 14.7622 22.1677 14.7622C23.0626 14.7622 23.7947 14.03 23.7947 13.1352C23.7947 12.2403 23.0626 11.5081 22.1677 11.5081Z" fill="white"/>
</svg>
