<svg width="13" height="13" viewBox="0 0 13 13" fill="none" xmlns="http://www.w3.org/2000/svg">
<path d="M6.68711 0C6.60576 0 6.52441 0.0650814 6.47559 0.146433L4.94618 3.09136C4.91364 3.17272 4.83229 3.2378 4.73467 3.2378H2.44055C1.09011 3.2378 0 4.32791 0 5.67835V12.8536C0 12.9349 0.0650814 13 0.146433 13H12.8536C12.9349 13 13 12.9349 13 12.8536V3.4005C13 3.30288 12.9349 3.25407 12.8536 3.25407H11.5357C11.4543 3.25407 11.373 3.18899 11.3242 3.10763L9.79474 0.162703C9.74593 0.0813517 9.68085 0.0162703 9.58323 0.0162703H6.6383L6.68711 0ZM2.47309 4.8811C2.92866 4.8811 3.28661 5.23905 3.28661 5.69462C3.28661 6.15019 2.92866 6.50814 2.47309 6.50814C2.01752 6.50814 1.65957 6.15019 1.65957 5.69462C1.65957 5.23905 2.01752 4.8811 2.47309 4.8811ZM8.16771 4.8811C9.95745 4.8811 11.4218 6.34543 11.4218 8.13517C11.4218 9.92491 9.95745 11.3892 8.16771 11.3892C6.37797 11.3892 4.91364 9.92491 4.91364 8.13517C4.91364 6.34543 6.37797 4.8811 8.16771 4.8811ZM8.16771 6.50814C7.27284 6.50814 6.54068 7.2403 6.54068 8.13517C6.54068 9.03004 7.27284 9.7622 8.16771 9.7622C9.06258 9.7622 9.79474 9.03004 9.79474 8.13517C9.79474 7.2403 9.06258 6.50814 8.16771 6.50814Z" fill="black"/>
</svg>
