<svg width="10" height="16" viewBox="0 0 10 16" fill="none" xmlns="http://www.w3.org/2000/svg">
<path d="M4.01198 0V1.99601H2.51497C1.15768 1.99601 0.0199601 3.13373 0.0199601 4.49102V5.48902C0.0199601 6.84631 0.898204 7.96407 2.19561 8.30339L7.30539 9.62076C7.58483 9.7006 7.98403 10.1996 7.98403 10.499V11.497C7.98403 11.7764 7.76447 11.996 7.48503 11.996H2.49501C2.25549 11.996 2.07585 11.9162 1.99601 11.8762V10H0V11.996C0 12.6747 0.399202 13.2535 0.878243 13.5529C1.33733 13.8723 1.91617 13.992 2.49501 13.992H3.99202V15.988H5.98802V13.992H7.48503C8.86228 13.992 9.98004 12.8743 9.98004 11.497V10.499C9.98004 9.14172 9.1018 8.02395 7.80439 7.68463L2.69461 6.36727C2.41517 6.28743 2.01597 5.78842 2.01597 5.48902V4.49102C2.01597 4.21158 2.23553 3.99202 2.51497 3.99202H7.50499C7.72455 3.99202 7.92415 4.07186 8.00399 4.11178V5.98802H10V3.99202C10 3.31337 9.6008 2.73453 9.12176 2.43513C8.66267 2.11577 8.08383 1.99601 7.50499 1.99601H6.00798V0L4.01198 0Z" fill="black"/>
</svg>
